<mxfile host="app.diagrams.net" agent="Mozilla/5.0 (Windows NT 10.0; Win64; x64) AppleWebKit/537.36 (KHTML, like Gecko) Chrome/133.0.0.0 Safari/537.36 Edg/133.0.0.0" version="26.1.0">
  <diagram name="Page-1" id="hq0q-L0cdEj8L14_gZck">
    <mxGraphModel dx="2020" dy="1078" grid="1" gridSize="10" guides="1" tooltips="1" connect="1" arrows="1" fold="1" page="1" pageScale="1" pageWidth="850" pageHeight="1100" math="0" shadow="0">
      <root>
        <mxCell id="0" />
        <mxCell id="1" parent="0" />
        <mxCell id="8GyeHOGu1WNqcmEmd_PX-79" value="&lt;b&gt;Tạo ca điểm danh&lt;/b&gt;" style="shape=umlFrame;whiteSpace=wrap;html=1;pointerEvents=0;swimlaneFillColor=default;width=160;height=30;" vertex="1" parent="1">
          <mxGeometry x="20" y="60" width="1450" height="1120" as="geometry" />
        </mxCell>
        <mxCell id="8GyeHOGu1WNqcmEmd_PX-32" value="&lt;b&gt;alt&lt;/b&gt;" style="shape=umlFrame;whiteSpace=wrap;html=1;pointerEvents=0;" vertex="1" parent="1">
          <mxGeometry x="130" y="460" width="870" height="150" as="geometry" />
        </mxCell>
        <mxCell id="8GyeHOGu1WNqcmEmd_PX-1" value="" style="shape=umlLifeline;perimeter=lifelinePerimeter;whiteSpace=wrap;html=1;container=1;dropTarget=0;collapsible=0;recursiveResize=0;outlineConnect=0;portConstraint=eastwest;newEdgeStyle={&quot;curved&quot;:0,&quot;rounded&quot;:0};participant=umlActor;size=50;" vertex="1" parent="1">
          <mxGeometry x="90" y="130" width="30" height="1050" as="geometry" />
        </mxCell>
        <mxCell id="8GyeHOGu1WNqcmEmd_PX-8" value="" style="html=1;points=[[0,0,0,0,5],[0,1,0,0,-5],[1,0,0,0,5],[1,1,0,0,-5]];perimeter=orthogonalPerimeter;outlineConnect=0;targetShapes=umlLifeline;portConstraint=eastwest;newEdgeStyle={&quot;curved&quot;:0,&quot;rounded&quot;:0};" vertex="1" parent="8GyeHOGu1WNqcmEmd_PX-1">
          <mxGeometry x="10" y="110" width="10" height="920" as="geometry" />
        </mxCell>
        <mxCell id="8GyeHOGu1WNqcmEmd_PX-2" value=":AttendanceViewer" style="shape=umlLifeline;perimeter=lifelinePerimeter;whiteSpace=wrap;html=1;container=1;dropTarget=0;collapsible=0;recursiveResize=0;outlineConnect=0;portConstraint=eastwest;newEdgeStyle={&quot;curved&quot;:0,&quot;rounded&quot;:0};" vertex="1" parent="1">
          <mxGeometry x="250" y="130" width="110" height="1050" as="geometry" />
        </mxCell>
        <mxCell id="8GyeHOGu1WNqcmEmd_PX-9" value="" style="html=1;points=[[0,0,0,0,5],[0,1,0,0,-5],[1,0,0,0,5],[1,1,0,0,-5]];perimeter=orthogonalPerimeter;outlineConnect=0;targetShapes=umlLifeline;portConstraint=eastwest;newEdgeStyle={&quot;curved&quot;:0,&quot;rounded&quot;:0};" vertex="1" parent="8GyeHOGu1WNqcmEmd_PX-2">
          <mxGeometry x="50" y="117" width="10" height="50" as="geometry" />
        </mxCell>
        <mxCell id="8GyeHOGu1WNqcmEmd_PX-16" value="" style="html=1;points=[[0,0,0,0,5],[0,1,0,0,-5],[1,0,0,0,5],[1,1,0,0,-5]];perimeter=orthogonalPerimeter;outlineConnect=0;targetShapes=umlLifeline;portConstraint=eastwest;newEdgeStyle={&quot;curved&quot;:0,&quot;rounded&quot;:0};" vertex="1" parent="8GyeHOGu1WNqcmEmd_PX-2">
          <mxGeometry x="50" y="200" width="10" height="50" as="geometry" />
        </mxCell>
        <mxCell id="8GyeHOGu1WNqcmEmd_PX-34" value="" style="html=1;points=[[0,0,0,0,5],[0,1,0,0,-5],[1,0,0,0,5],[1,1,0,0,-5]];perimeter=orthogonalPerimeter;outlineConnect=0;targetShapes=umlLifeline;portConstraint=eastwest;newEdgeStyle={&quot;curved&quot;:0,&quot;rounded&quot;:0};" vertex="1" parent="8GyeHOGu1WNqcmEmd_PX-2">
          <mxGeometry x="50" y="360" width="10" height="100" as="geometry" />
        </mxCell>
        <mxCell id="8GyeHOGu1WNqcmEmd_PX-56" value="" style="html=1;points=[[0,0,0,0,5],[0,1,0,0,-5],[1,0,0,0,5],[1,1,0,0,-5]];perimeter=orthogonalPerimeter;outlineConnect=0;targetShapes=umlLifeline;portConstraint=eastwest;newEdgeStyle={&quot;curved&quot;:0,&quot;rounded&quot;:0};" vertex="1" parent="8GyeHOGu1WNqcmEmd_PX-2">
          <mxGeometry x="50" y="950" width="10" height="50" as="geometry" />
        </mxCell>
        <mxCell id="8GyeHOGu1WNqcmEmd_PX-3" value=":AttendanceController" style="shape=umlLifeline;perimeter=lifelinePerimeter;whiteSpace=wrap;html=1;container=1;dropTarget=0;collapsible=0;recursiveResize=0;outlineConnect=0;portConstraint=eastwest;newEdgeStyle={&quot;curved&quot;:0,&quot;rounded&quot;:0};" vertex="1" parent="1">
          <mxGeometry x="440" y="130" width="120" height="1050" as="geometry" />
        </mxCell>
        <mxCell id="8GyeHOGu1WNqcmEmd_PX-10" value="" style="html=1;points=[[0,0,0,0,5],[0,1,0,0,-5],[1,0,0,0,5],[1,1,0,0,-5]];perimeter=orthogonalPerimeter;outlineConnect=0;targetShapes=umlLifeline;portConstraint=eastwest;newEdgeStyle={&quot;curved&quot;:0,&quot;rounded&quot;:0};" vertex="1" parent="8GyeHOGu1WNqcmEmd_PX-3">
          <mxGeometry x="55" y="117" width="10" height="50" as="geometry" />
        </mxCell>
        <mxCell id="8GyeHOGu1WNqcmEmd_PX-20" value="" style="html=1;points=[[0,0,0,0,5],[0,1,0,0,-5],[1,0,0,0,5],[1,1,0,0,-5]];perimeter=orthogonalPerimeter;outlineConnect=0;targetShapes=umlLifeline;portConstraint=eastwest;newEdgeStyle={&quot;curved&quot;:0,&quot;rounded&quot;:0};" vertex="1" parent="8GyeHOGu1WNqcmEmd_PX-3">
          <mxGeometry x="55" y="200" width="10" height="50" as="geometry" />
        </mxCell>
        <mxCell id="8GyeHOGu1WNqcmEmd_PX-58" value="" style="html=1;points=[[0,0,0,0,5],[0,1,0,0,-5],[1,0,0,0,5],[1,1,0,0,-5]];perimeter=orthogonalPerimeter;outlineConnect=0;targetShapes=umlLifeline;portConstraint=eastwest;newEdgeStyle={&quot;curved&quot;:0,&quot;rounded&quot;:0};" vertex="1" parent="8GyeHOGu1WNqcmEmd_PX-3">
          <mxGeometry x="55" y="950" width="10" height="50" as="geometry" />
        </mxCell>
        <mxCell id="8GyeHOGu1WNqcmEmd_PX-4" value=":Attendance&lt;span style=&quot;color: rgba(0, 0, 0, 0); font-family: monospace; font-size: 0px; text-align: start; text-wrap-mode: nowrap;&quot;&gt;%3CmxGraphModel%3E%3Croot%3E%3CmxCell%20id%3D%220%22%2F%3E%3CmxCell%20id%3D%221%22%20parent%3D%220%22%2F%3E%3CmxCell%20id%3D%222%22%20value%3D%22%3AAttendanceController%22%20style%3D%22shape%3DumlLifeline%3Bperimeter%3DlifelinePerimeter%3BwhiteSpace%3Dwrap%3Bhtml%3D1%3Bcontainer%3D1%3BdropTarget%3D0%3Bcollapsible%3D0%3BrecursiveResize%3D0%3BoutlineConnect%3D0%3BportConstraint%3Deastwest%3BnewEdgeStyle%3D%7B%26quot%3Bcurved%26quot%3B%3A0%2C%26quot%3Brounded%26quot%3B%3A0%7D%3B%22%20vertex%3D%221%22%20parent%3D%221%22%3E%3CmxGeometry%20x%3D%22440%22%20y%3D%22130%22%20width%3D%22120%22%20height%3D%22300%22%20as%3D%22geometry%22%2F%3E%3C%2FmxCell%3E%3C%2Froot%3E%3C%2FmxGraphModel%3E&lt;/span&gt;" style="shape=umlLifeline;perimeter=lifelinePerimeter;whiteSpace=wrap;html=1;container=1;dropTarget=0;collapsible=0;recursiveResize=0;outlineConnect=0;portConstraint=eastwest;newEdgeStyle={&quot;curved&quot;:0,&quot;rounded&quot;:0};" vertex="1" parent="1">
          <mxGeometry x="640" y="130" width="120" height="1050" as="geometry" />
        </mxCell>
        <mxCell id="8GyeHOGu1WNqcmEmd_PX-23" value="" style="html=1;points=[[0,0,0,0,5],[0,1,0,0,-5],[1,0,0,0,5],[1,1,0,0,-5]];perimeter=orthogonalPerimeter;outlineConnect=0;targetShapes=umlLifeline;portConstraint=eastwest;newEdgeStyle={&quot;curved&quot;:0,&quot;rounded&quot;:0};" vertex="1" parent="8GyeHOGu1WNqcmEmd_PX-4">
          <mxGeometry x="55" y="200" width="10" height="50" as="geometry" />
        </mxCell>
        <mxCell id="8GyeHOGu1WNqcmEmd_PX-60" value="" style="html=1;points=[[0,0,0,0,5],[0,1,0,0,-5],[1,0,0,0,5],[1,1,0,0,-5]];perimeter=orthogonalPerimeter;outlineConnect=0;targetShapes=umlLifeline;portConstraint=eastwest;newEdgeStyle={&quot;curved&quot;:0,&quot;rounded&quot;:0};" vertex="1" parent="8GyeHOGu1WNqcmEmd_PX-4">
          <mxGeometry x="55" y="950" width="10" height="50" as="geometry" />
        </mxCell>
        <mxCell id="8GyeHOGu1WNqcmEmd_PX-5" value=":QRService" style="shape=umlLifeline;perimeter=lifelinePerimeter;whiteSpace=wrap;html=1;container=1;dropTarget=0;collapsible=0;recursiveResize=0;outlineConnect=0;portConstraint=eastwest;newEdgeStyle={&quot;curved&quot;:0,&quot;rounded&quot;:0};" vertex="1" parent="1">
          <mxGeometry x="840" y="130" width="120" height="1050" as="geometry" />
        </mxCell>
        <mxCell id="8GyeHOGu1WNqcmEmd_PX-30" value="" style="html=1;points=[[0,0,0,0,5],[0,1,0,0,-5],[1,0,0,0,5],[1,1,0,0,-5]];perimeter=orthogonalPerimeter;outlineConnect=0;targetShapes=umlLifeline;portConstraint=eastwest;newEdgeStyle={&quot;curved&quot;:0,&quot;rounded&quot;:0};" vertex="1" parent="8GyeHOGu1WNqcmEmd_PX-5">
          <mxGeometry x="55" y="300" width="10" height="160" as="geometry" />
        </mxCell>
        <mxCell id="8GyeHOGu1WNqcmEmd_PX-6" value=":FaceRecognitionService" style="shape=umlLifeline;perimeter=lifelinePerimeter;whiteSpace=wrap;html=1;container=1;dropTarget=0;collapsible=0;recursiveResize=0;outlineConnect=0;portConstraint=eastwest;newEdgeStyle={&quot;curved&quot;:0,&quot;rounded&quot;:0};" vertex="1" parent="1">
          <mxGeometry x="1040" y="130" width="150" height="1050" as="geometry" />
        </mxCell>
        <mxCell id="8GyeHOGu1WNqcmEmd_PX-7" value=":AttendanceDB" style="shape=umlLifeline;perimeter=lifelinePerimeter;whiteSpace=wrap;html=1;container=1;dropTarget=0;collapsible=0;recursiveResize=0;outlineConnect=0;portConstraint=eastwest;newEdgeStyle={&quot;curved&quot;:0,&quot;rounded&quot;:0};" vertex="1" parent="1">
          <mxGeometry x="1275" y="130" width="150" height="1050" as="geometry" />
        </mxCell>
        <mxCell id="8GyeHOGu1WNqcmEmd_PX-62" value="" style="html=1;points=[[0,0,0,0,5],[0,1,0,0,-5],[1,0,0,0,5],[1,1,0,0,-5]];perimeter=orthogonalPerimeter;outlineConnect=0;targetShapes=umlLifeline;portConstraint=eastwest;newEdgeStyle={&quot;curved&quot;:0,&quot;rounded&quot;:0};" vertex="1" parent="8GyeHOGu1WNqcmEmd_PX-7">
          <mxGeometry x="70" y="950" width="10" height="50" as="geometry" />
        </mxCell>
        <mxCell id="8GyeHOGu1WNqcmEmd_PX-11" value="1. createAttendanceSession()" style="html=1;verticalAlign=bottom;endArrow=block;curved=0;rounded=0;" edge="1" parent="1" target="8GyeHOGu1WNqcmEmd_PX-9">
          <mxGeometry width="80" relative="1" as="geometry">
            <mxPoint x="110" y="257" as="sourcePoint" />
            <mxPoint x="190" y="257" as="targetPoint" />
          </mxGeometry>
        </mxCell>
        <mxCell id="8GyeHOGu1WNqcmEmd_PX-12" value="2. requestCreateSession()" style="html=1;verticalAlign=bottom;endArrow=block;curved=0;rounded=0;" edge="1" parent="1" target="8GyeHOGu1WNqcmEmd_PX-10">
          <mxGeometry width="80" relative="1" as="geometry">
            <mxPoint x="310" y="257" as="sourcePoint" />
            <mxPoint x="490" y="257" as="targetPoint" />
          </mxGeometry>
        </mxCell>
        <mxCell id="8GyeHOGu1WNqcmEmd_PX-13" value="3. showAttendanceOptions()" style="html=1;verticalAlign=bottom;endArrow=open;dashed=1;endSize=8;curved=0;rounded=0;" edge="1" parent="1" source="8GyeHOGu1WNqcmEmd_PX-10">
          <mxGeometry relative="1" as="geometry">
            <mxPoint x="390" y="287" as="sourcePoint" />
            <mxPoint x="310" y="287" as="targetPoint" />
          </mxGeometry>
        </mxCell>
        <mxCell id="8GyeHOGu1WNqcmEmd_PX-17" value="4. selectAttendanceMethod()" style="html=1;verticalAlign=bottom;endArrow=block;curved=0;rounded=0;" edge="1" parent="1">
          <mxGeometry width="80" relative="1" as="geometry">
            <mxPoint x="110" y="340" as="sourcePoint" />
            <mxPoint x="300" y="340" as="targetPoint" />
          </mxGeometry>
        </mxCell>
        <mxCell id="8GyeHOGu1WNqcmEmd_PX-22" value="5. confirmSelection()" style="html=1;verticalAlign=bottom;endArrow=block;curved=0;rounded=0;" edge="1" parent="1">
          <mxGeometry width="80" relative="1" as="geometry">
            <mxPoint x="310" y="340" as="sourcePoint" />
            <mxPoint x="495" y="340" as="targetPoint" />
          </mxGeometry>
        </mxCell>
        <mxCell id="8GyeHOGu1WNqcmEmd_PX-24" value="6. saveMethod()" style="html=1;verticalAlign=bottom;endArrow=block;curved=0;rounded=0;" edge="1" parent="1" source="8GyeHOGu1WNqcmEmd_PX-20">
          <mxGeometry width="80" relative="1" as="geometry">
            <mxPoint x="510" y="340" as="sourcePoint" />
            <mxPoint x="695" y="340" as="targetPoint" />
          </mxGeometry>
        </mxCell>
        <mxCell id="8GyeHOGu1WNqcmEmd_PX-25" value="&lt;b&gt;alt&lt;/b&gt;" style="shape=umlFrame;whiteSpace=wrap;html=1;pointerEvents=0;swimlaneFillColor=none;" vertex="1" parent="1">
          <mxGeometry x="70" y="390" width="1130" height="640" as="geometry" />
        </mxCell>
        <mxCell id="8GyeHOGu1WNqcmEmd_PX-29" value="" style="html=1;points=[[0,0,0,0,5],[0,1,0,0,-5],[1,0,0,0,5],[1,1,0,0,-5]];perimeter=orthogonalPerimeter;outlineConnect=0;targetShapes=umlLifeline;portConstraint=eastwest;newEdgeStyle={&quot;curved&quot;:0,&quot;rounded&quot;:0};" vertex="1" parent="1">
          <mxGeometry x="495" y="430" width="10" height="160" as="geometry" />
        </mxCell>
        <mxCell id="8GyeHOGu1WNqcmEmd_PX-31" value="7. createQR()" style="html=1;verticalAlign=bottom;endArrow=block;curved=0;rounded=0;" edge="1" parent="1" target="8GyeHOGu1WNqcmEmd_PX-30">
          <mxGeometry width="80" relative="1" as="geometry">
            <mxPoint x="505" y="440" as="sourcePoint" />
            <mxPoint x="695" y="440" as="targetPoint" />
          </mxGeometry>
        </mxCell>
        <mxCell id="8GyeHOGu1WNqcmEmd_PX-33" value="8. qrGenerated()" style="html=1;verticalAlign=bottom;endArrow=open;dashed=1;endSize=8;curved=0;rounded=0;" edge="1" parent="1" source="8GyeHOGu1WNqcmEmd_PX-30">
          <mxGeometry relative="1" as="geometry">
            <mxPoint x="890" y="500" as="sourcePoint" />
            <mxPoint x="505" y="500" as="targetPoint" />
          </mxGeometry>
        </mxCell>
        <mxCell id="8GyeHOGu1WNqcmEmd_PX-35" value="9. showQR()" style="html=1;verticalAlign=bottom;endArrow=open;dashed=1;endSize=8;curved=0;rounded=0;" edge="1" parent="1">
          <mxGeometry relative="1" as="geometry">
            <mxPoint x="495" y="500" as="sourcePoint" />
            <mxPoint x="310" y="500" as="targetPoint" />
          </mxGeometry>
        </mxCell>
        <mxCell id="8GyeHOGu1WNqcmEmd_PX-36" value="9. qrGenerationFailed()" style="html=1;verticalAlign=bottom;endArrow=open;dashed=1;endSize=8;curved=0;rounded=0;" edge="1" parent="1">
          <mxGeometry relative="1" as="geometry">
            <mxPoint x="895" y="569.7" as="sourcePoint" />
            <mxPoint x="505" y="569.7" as="targetPoint" />
          </mxGeometry>
        </mxCell>
        <mxCell id="8GyeHOGu1WNqcmEmd_PX-37" value="10. showQRError()" style="html=1;verticalAlign=bottom;endArrow=open;dashed=1;endSize=8;curved=0;rounded=0;" edge="1" parent="1">
          <mxGeometry relative="1" as="geometry">
            <mxPoint x="495" y="569.7" as="sourcePoint" />
            <mxPoint x="310" y="569.7" as="targetPoint" />
          </mxGeometry>
        </mxCell>
        <mxCell id="8GyeHOGu1WNqcmEmd_PX-40" value="&lt;b&gt;alt&lt;/b&gt;" style="shape=umlFrame;whiteSpace=wrap;html=1;pointerEvents=0;" vertex="1" parent="1">
          <mxGeometry x="130" y="710" width="1030" height="150" as="geometry" />
        </mxCell>
        <mxCell id="8GyeHOGu1WNqcmEmd_PX-41" value="" style="html=1;points=[[0,0,0,0,5],[0,1,0,0,-5],[1,0,0,0,5],[1,1,0,0,-5]];perimeter=orthogonalPerimeter;outlineConnect=0;targetShapes=umlLifeline;portConstraint=eastwest;newEdgeStyle={&quot;curved&quot;:0,&quot;rounded&quot;:0};" vertex="1" parent="1">
          <mxGeometry x="495" y="680" width="10" height="160" as="geometry" />
        </mxCell>
        <mxCell id="8GyeHOGu1WNqcmEmd_PX-42" value="" style="html=1;points=[[0,0,0,0,5],[0,1,0,0,-5],[1,0,0,0,5],[1,1,0,0,-5]];perimeter=orthogonalPerimeter;outlineConnect=0;targetShapes=umlLifeline;portConstraint=eastwest;newEdgeStyle={&quot;curved&quot;:0,&quot;rounded&quot;:0};" vertex="1" parent="1">
          <mxGeometry x="1110" y="680" width="10" height="160" as="geometry" />
        </mxCell>
        <mxCell id="8GyeHOGu1WNqcmEmd_PX-43" value="11. activateFaceRecognisation()" style="html=1;verticalAlign=bottom;endArrow=block;curved=0;rounded=0;" edge="1" parent="1" target="8GyeHOGu1WNqcmEmd_PX-42">
          <mxGeometry width="80" relative="1" as="geometry">
            <mxPoint x="505" y="690" as="sourcePoint" />
            <mxPoint x="895" y="690" as="targetPoint" />
          </mxGeometry>
        </mxCell>
        <mxCell id="8GyeHOGu1WNqcmEmd_PX-44" value="" style="html=1;points=[[0,0,0,0,5],[0,1,0,0,-5],[1,0,0,0,5],[1,1,0,0,-5]];perimeter=orthogonalPerimeter;outlineConnect=0;targetShapes=umlLifeline;portConstraint=eastwest;newEdgeStyle={&quot;curved&quot;:0,&quot;rounded&quot;:0};" vertex="1" parent="1">
          <mxGeometry x="300" y="735" width="10" height="100" as="geometry" />
        </mxCell>
        <mxCell id="8GyeHOGu1WNqcmEmd_PX-45" value="12. recognitionReady()" style="html=1;verticalAlign=bottom;endArrow=open;dashed=1;endSize=8;curved=0;rounded=0;" edge="1" parent="1" source="8GyeHOGu1WNqcmEmd_PX-42">
          <mxGeometry relative="1" as="geometry">
            <mxPoint x="895" y="750" as="sourcePoint" />
            <mxPoint x="505" y="750" as="targetPoint" />
          </mxGeometry>
        </mxCell>
        <mxCell id="8GyeHOGu1WNqcmEmd_PX-46" value="13. showFaceRecognitionMode()" style="html=1;verticalAlign=bottom;endArrow=open;dashed=1;endSize=8;curved=0;rounded=0;" edge="1" parent="1">
          <mxGeometry relative="1" as="geometry">
            <mxPoint x="495" y="750" as="sourcePoint" />
            <mxPoint x="310" y="750" as="targetPoint" />
          </mxGeometry>
        </mxCell>
        <mxCell id="8GyeHOGu1WNqcmEmd_PX-47" value="14. recognitionFailed()" style="html=1;verticalAlign=bottom;endArrow=open;dashed=1;endSize=8;curved=0;rounded=0;" edge="1" parent="1">
          <mxGeometry relative="1" as="geometry">
            <mxPoint x="1110" y="820" as="sourcePoint" />
            <mxPoint x="505" y="820" as="targetPoint" />
          </mxGeometry>
        </mxCell>
        <mxCell id="8GyeHOGu1WNqcmEmd_PX-48" value="15. showFCError()" style="html=1;verticalAlign=bottom;endArrow=open;dashed=1;endSize=8;curved=0;rounded=0;" edge="1" parent="1">
          <mxGeometry relative="1" as="geometry">
            <mxPoint x="495" y="820" as="sourcePoint" />
            <mxPoint x="310" y="820" as="targetPoint" />
          </mxGeometry>
        </mxCell>
        <mxCell id="8GyeHOGu1WNqcmEmd_PX-49" value="" style="html=1;verticalAlign=bottom;endArrow=none;dashed=1;endSize=8;curved=0;rounded=0;startFill=0;" edge="1" parent="1">
          <mxGeometry relative="1" as="geometry">
            <mxPoint x="1200" y="641" as="sourcePoint" />
            <mxPoint x="70" y="640" as="targetPoint" />
          </mxGeometry>
        </mxCell>
        <mxCell id="8GyeHOGu1WNqcmEmd_PX-50" value="" style="html=1;verticalAlign=bottom;endArrow=none;dashed=1;endSize=8;curved=0;rounded=0;startFill=0;entryX=-0.001;entryY=0.5;entryDx=0;entryDy=0;entryPerimeter=0;" edge="1" parent="1" target="8GyeHOGu1WNqcmEmd_PX-32">
          <mxGeometry relative="1" as="geometry">
            <mxPoint x="1000" y="535" as="sourcePoint" />
            <mxPoint x="190" y="534.6" as="targetPoint" />
          </mxGeometry>
        </mxCell>
        <mxCell id="8GyeHOGu1WNqcmEmd_PX-51" value="" style="html=1;verticalAlign=bottom;endArrow=none;dashed=1;endSize=8;curved=0;rounded=0;startFill=0;exitX=1.001;exitY=0.507;exitDx=0;exitDy=0;exitPerimeter=0;entryX=-0.001;entryY=0.489;entryDx=0;entryDy=0;entryPerimeter=0;" edge="1" parent="1" source="8GyeHOGu1WNqcmEmd_PX-40" target="8GyeHOGu1WNqcmEmd_PX-40">
          <mxGeometry relative="1" as="geometry">
            <mxPoint x="1000" y="785" as="sourcePoint" />
            <mxPoint x="190" y="784.6" as="targetPoint" />
          </mxGeometry>
        </mxCell>
        <mxCell id="8GyeHOGu1WNqcmEmd_PX-52" value="" style="html=1;verticalAlign=bottom;endArrow=none;dashed=1;endSize=8;curved=0;rounded=0;exitX=1;exitY=0.362;exitDx=0;exitDy=0;exitPerimeter=0;startFill=0;" edge="1" parent="1">
          <mxGeometry relative="1" as="geometry">
            <mxPoint x="1200" y="920" as="sourcePoint" />
            <mxPoint x="70" y="920" as="targetPoint" />
          </mxGeometry>
        </mxCell>
        <mxCell id="8GyeHOGu1WNqcmEmd_PX-53" value="" style="html=1;points=[[0,0,0,0,5],[0,1,0,0,-5],[1,0,0,0,5],[1,1,0,0,-5]];perimeter=orthogonalPerimeter;outlineConnect=0;targetShapes=umlLifeline;portConstraint=eastwest;newEdgeStyle={&quot;curved&quot;:0,&quot;rounded&quot;:0};" vertex="1" parent="1">
          <mxGeometry x="495" y="950" width="10" height="50" as="geometry" />
        </mxCell>
        <mxCell id="8GyeHOGu1WNqcmEmd_PX-54" value="" style="html=1;points=[[0,0,0,0,5],[0,1,0,0,-5],[1,0,0,0,5],[1,1,0,0,-5]];perimeter=orthogonalPerimeter;outlineConnect=0;targetShapes=umlLifeline;portConstraint=eastwest;newEdgeStyle={&quot;curved&quot;:0,&quot;rounded&quot;:0};" vertex="1" parent="1">
          <mxGeometry x="300" y="950" width="10" height="50" as="geometry" />
        </mxCell>
        <mxCell id="8GyeHOGu1WNqcmEmd_PX-55" value="16. showManualAttendanceUI()" style="html=1;verticalAlign=bottom;endArrow=none;curved=0;rounded=0;startFill=1;startArrow=block;" edge="1" parent="1" target="8GyeHOGu1WNqcmEmd_PX-53">
          <mxGeometry width="80" relative="1" as="geometry">
            <mxPoint x="310" y="960" as="sourcePoint" />
            <mxPoint x="915" y="960" as="targetPoint" />
          </mxGeometry>
        </mxCell>
        <mxCell id="8GyeHOGu1WNqcmEmd_PX-57" value="17. setDuration()" style="html=1;verticalAlign=bottom;endArrow=block;curved=0;rounded=0;" edge="1" parent="1">
          <mxGeometry width="80" relative="1" as="geometry">
            <mxPoint x="110" y="1090" as="sourcePoint" />
            <mxPoint x="300" y="1090" as="targetPoint" />
          </mxGeometry>
        </mxCell>
        <mxCell id="8GyeHOGu1WNqcmEmd_PX-59" value="18. saveSessionDetails()" style="html=1;verticalAlign=bottom;endArrow=block;curved=0;rounded=0;" edge="1" parent="1" target="8GyeHOGu1WNqcmEmd_PX-58">
          <mxGeometry width="80" relative="1" as="geometry">
            <mxPoint x="310" y="1090" as="sourcePoint" />
            <mxPoint x="490" y="1090" as="targetPoint" />
          </mxGeometry>
        </mxCell>
        <mxCell id="8GyeHOGu1WNqcmEmd_PX-61" value="19. storeSessionData()" style="html=1;verticalAlign=bottom;endArrow=block;curved=0;rounded=0;" edge="1" parent="1" target="8GyeHOGu1WNqcmEmd_PX-60">
          <mxGeometry width="80" relative="1" as="geometry">
            <mxPoint x="505" y="1090" as="sourcePoint" />
            <mxPoint x="690" y="1090" as="targetPoint" />
          </mxGeometry>
        </mxCell>
        <mxCell id="8GyeHOGu1WNqcmEmd_PX-63" value="20. saveSession()" style="html=1;verticalAlign=bottom;endArrow=block;curved=0;rounded=0;" edge="1" parent="1" target="8GyeHOGu1WNqcmEmd_PX-62">
          <mxGeometry width="80" relative="1" as="geometry">
            <mxPoint x="705" y="1090" as="sourcePoint" />
            <mxPoint x="895" y="1090" as="targetPoint" />
          </mxGeometry>
        </mxCell>
        <mxCell id="8GyeHOGu1WNqcmEmd_PX-66" value="22. sessionCreated()" style="html=1;verticalAlign=bottom;endArrow=open;dashed=1;endSize=8;curved=0;rounded=0;" edge="1" parent="1" source="8GyeHOGu1WNqcmEmd_PX-60">
          <mxGeometry relative="1" as="geometry">
            <mxPoint x="690" y="1120" as="sourcePoint" />
            <mxPoint x="505" y="1120" as="targetPoint" />
          </mxGeometry>
        </mxCell>
        <mxCell id="8GyeHOGu1WNqcmEmd_PX-69" value="23, displayStudentList()" style="html=1;verticalAlign=bottom;endArrow=open;dashed=1;endSize=8;curved=0;rounded=0;" edge="1" parent="1" source="8GyeHOGu1WNqcmEmd_PX-58">
          <mxGeometry relative="1" as="geometry">
            <mxPoint x="490" y="1120" as="sourcePoint" />
            <mxPoint x="310" y="1120" as="targetPoint" />
          </mxGeometry>
        </mxCell>
        <mxCell id="8GyeHOGu1WNqcmEmd_PX-70" value="21. confirmSave()" style="html=1;verticalAlign=bottom;endArrow=open;dashed=1;endSize=8;curved=0;rounded=0;" edge="1" parent="1" source="8GyeHOGu1WNqcmEmd_PX-62">
          <mxGeometry relative="1" as="geometry">
            <mxPoint x="894" y="1120" as="sourcePoint" />
            <mxPoint x="704" y="1120" as="targetPoint" />
          </mxGeometry>
        </mxCell>
        <mxCell id="8GyeHOGu1WNqcmEmd_PX-71" value="Giảng viên" style="text;html=1;align=center;verticalAlign=middle;resizable=0;points=[];autosize=1;strokeColor=none;fillColor=none;" vertex="1" parent="1">
          <mxGeometry x="65" y="100" width="80" height="30" as="geometry" />
        </mxCell>
        <mxCell id="8GyeHOGu1WNqcmEmd_PX-72" value="&lt;b&gt;Điểm danh QR&lt;/b&gt;" style="text;html=1;align=left;verticalAlign=middle;resizable=0;points=[];autosize=1;strokeColor=none;fillColor=none;" vertex="1" parent="1">
          <mxGeometry x="138" y="390" width="110" height="30" as="geometry" />
        </mxCell>
        <mxCell id="8GyeHOGu1WNqcmEmd_PX-73" value="&lt;b&gt;Điểm danh khuôn mặt&lt;/b&gt;" style="text;html=1;align=left;verticalAlign=middle;resizable=0;points=[];autosize=1;strokeColor=none;fillColor=none;" vertex="1" parent="1">
          <mxGeometry x="130" y="640" width="150" height="30" as="geometry" />
        </mxCell>
        <mxCell id="8GyeHOGu1WNqcmEmd_PX-74" value="&lt;b&gt;Điểm danh thủ công&lt;/b&gt;" style="text;html=1;align=left;verticalAlign=middle;resizable=0;points=[];autosize=1;strokeColor=none;fillColor=none;" vertex="1" parent="1">
          <mxGeometry x="130" y="920" width="140" height="30" as="geometry" />
        </mxCell>
        <mxCell id="8GyeHOGu1WNqcmEmd_PX-75" value="&lt;b&gt;Tạo QR&lt;/b&gt;&lt;div&gt;&lt;b&gt;thành công&lt;/b&gt;&lt;/div&gt;" style="text;html=1;align=left;verticalAlign=middle;resizable=0;points=[];autosize=1;strokeColor=none;fillColor=none;" vertex="1" parent="1">
          <mxGeometry x="198" y="460" width="90" height="40" as="geometry" />
        </mxCell>
        <mxCell id="8GyeHOGu1WNqcmEmd_PX-76" value="&lt;b&gt;Tạo QR&lt;/b&gt;&lt;div&gt;&lt;b&gt;thất bại&lt;/b&gt;&lt;/div&gt;" style="text;html=1;align=left;verticalAlign=middle;resizable=0;points=[];autosize=1;strokeColor=none;fillColor=none;" vertex="1" parent="1">
          <mxGeometry x="198" y="540" width="70" height="40" as="geometry" />
        </mxCell>
        <mxCell id="8GyeHOGu1WNqcmEmd_PX-77" value="&lt;b&gt;Khởi tạo&amp;nbsp;&lt;/b&gt;&lt;div&gt;&lt;b&gt;nhận diện&amp;nbsp;&lt;/b&gt;&lt;/div&gt;&lt;div&gt;&lt;b&gt;thành công&lt;/b&gt;&lt;/div&gt;" style="text;html=1;align=left;verticalAlign=middle;resizable=0;points=[];autosize=1;strokeColor=none;fillColor=none;" vertex="1" parent="1">
          <mxGeometry x="198" y="707" width="90" height="60" as="geometry" />
        </mxCell>
        <mxCell id="8GyeHOGu1WNqcmEmd_PX-78" value="&lt;b&gt;Khởi tạo&amp;nbsp;&lt;/b&gt;&lt;div&gt;&lt;b&gt;nhận diện&amp;nbsp;&lt;/b&gt;&lt;/div&gt;&lt;div&gt;&lt;b&gt;thất bại&lt;/b&gt;&lt;/div&gt;" style="text;html=1;align=left;verticalAlign=middle;resizable=0;points=[];autosize=1;strokeColor=none;fillColor=none;" vertex="1" parent="1">
          <mxGeometry x="198" y="780" width="80" height="60" as="geometry" />
        </mxCell>
      </root>
    </mxGraphModel>
  </diagram>
</mxfile>
